<?xml version="1.0" encoding="utf-8"?>
<!-- Generator: Adobe Illustrator 16.0.0, SVG Export Plug-In . SVG Version: 6.00 Build 0)  -->
<!DOCTYPE svg PUBLIC "-//W3C//DTD SVG 1.1//EN" "http://www.w3.org/Graphics/SVG/1.1/DTD/svg11.dtd">
<svg version="1.1" id="svg2" xmlns="http://www.w3.org/2000/svg" xmlns:xlink="http://www.w3.org/1999/xlink" x="0px" y="0px"
	 width="14px" height="14px" viewBox="151.445 152.796 14 14" enable-background="new 151.445 152.796 14 14" xml:space="preserve">
<path id="exclusion-zone" fill="#FFFFFF" d="M151.445,166.796h14v-14h-14V166.796z"/>
<path id="FT-Pink" fill="#FCD0AF" d="M165.444,166.796h-14v-14h14V166.796z"/>
<path id="FT" fill="#3E474F" d="M155.026,160.102c0,0.661,0.176,0.735,0.93,0.764v0.241h-2.994v-0.241
	c0.623-0.028,0.799-0.103,0.799-0.764v-4.314c0-0.661-0.177-0.735-0.781-0.763v-0.243h5.281l0.038,1.395h-0.26
	c-0.224-0.707-0.465-0.929-1.702-0.929h-0.958c-0.288,0-0.353,0.064-0.353,0.325v2h0.472c0.986,0,1.2-0.178,1.321-0.838h0.242v2.232
	h-0.242c-0.13-0.744-0.502-0.929-1.321-0.929h-0.472V160.102L155.026,160.102z M164.243,154.783H158.7l-0.129,1.396h0.318
	c0.203-0.683,0.501-0.93,1.168-0.93h0.781v4.854c0,0.661-0.177,0.735-0.893,0.764v0.241h3.05v-0.241
	c-0.716-0.028-0.893-0.103-0.893-0.764v-4.854h0.781c0.667,0,0.966,0.247,1.169,0.93h0.317L164.243,154.783L164.243,154.783z"/>
</svg>
